# xmcd
#
# Track frame offsets:
#  150
#  13962
#  26362
#  39612
#  52237
#  65010
#  76670
#  88772
#  99102
#  112805
#  123197
#  139605
#  151497
#  162825
#  175862
#
# Disc length: 2551 seconds
#
# Revision: 0
# Processed by: cddbd v1.5.1PL2 Copyright (c) Steve Scherf et al.
# Submitted via: Collectorz.com_Music_Collector 6.9
#
DISCID=b609f50f
DTITLE=Clarence Carter - The Dynamic Clarence Caeter
DYEAR=1996
DGENRE=Blues - Soul
TTITLE0=I'd Rather Go Blind
TTITLE1=Think  About It
TTITLE2=The Road Of Love
TTITLE3=You've Been A :ong Time Comin'
TTITLE4=Light My Fire
TTITLE5=That Old Timr Feeling
TTITLE6=Steal Away
TTITLE7=Let Me Comfort You
TTITLE8=Look What I Got
TTITLE9=Too Weak To Fight
TTITLE10=Harper Valley PTA
TTITLE11=Weekend Love
TTITLE12=Don't Make My Baby Cry
TTITLE13=Take It Off Him (And Put It On Me)
TTITLE14=The Few Troubles I've Had
EXTD=
EXTT0=
EXTT1=
EXTT2=
EXTT3=
EXTT4=
EXTT5=
EXTT6=
EXTT7=
EXTT8=
EXTT9=
EXTT10=
EXTT11=
EXTT12=
EXTT13=
EXTT14=
PLAYORDER=
